{"asset":{"generator":"Khronos glTF Spline I/O v0.0.1","version":"2.0"},"scenes":[{"nodes":[0]}],"nodes":[{"name":"","children":[1,2]},{"name":"FloppyDisk","matrix":[1,0,0,0,0,1,0,0,0,0,1,0,1,0,3.309522243011088,1],"children":[3,4]},{"name":"Personal Camera","camera":0,"translation":[13.481513630340096,795.6696490595334,-607.2403270808452],"rotation":[-0.01735880412139549,0.9181059241337289,0.3938819837276955,0.0404619189456204]},{"name":"Slider","matrix":[1,0,0,0,0,1,0,0,0,0,1,0,-1,0,299.05109939144876,1],"mesh":0},{"name":"Disk","matrix":[9,0,0,0,0,0.49999999999999994,0,0,0,0,9.3,0,0,0.9999999999999999,-4.309522243011087,0.9999999999999999],"mesh":1}],"cameras":[{"type":"orthographic","orthographic":{"xmag":1626,"ymag":1444,"zfar":100000,"znear":-100000}}],"meshes":[{"primitives":[{"attributes":{"POSITION":1,"NORMAL":2,"FACEMAP":3,"COLOR":4},"indices":0}]},{"primitives":[{"attributes":{"POSITION":6,"NORMAL":7},"indices":5}]}],"buffers":[{"uri":"data:application/octet-stream;base64,","byteLength":61216},{"uri":"data:application/octet-stream;base64,","byteLength":691200}],"bufferViews":[{"buffer":0,"byteOffset":0,"byteLength":7872,"target":34963},{"buffer":0,"byteOffset":7872,"byteLength":15264,"target":34962},{"buffer":0,"byteOffset":23136,"byteLength":15264,"target":34962},{"buffer":0,"byteOffset":38400,"byteLength":2464,"target":34962},{"buffer":0,"byteOffset":40864,"byteLength":20352,"target":34962},{"buffer":1,"byteOffset":0,"byteLength":138240,"target":34963},{"buffer":1,"byteOffset":138240,"byteLength":276480,"target":34962},{"buffer":1,"byteOffset":414720,"byteLength":276480,"target":34962}],"accessors":[{"bufferView":0,"byteOffset":0,"componentType":5125,"count":1968,"type":"SCALAR","min":[0],"max":[1271]},{"bufferView":1,"byteOffset":0,"componentType":5126,"count":1272,"type":"VEC3","min":[-280.6071472167969,-30.504676818847656,-170.2584228515625],"max":[280.6071472167969,30.504676818847656,170.2584228515625]},{"bufferView":2,"byteOffset":0,"componentType":5126,"count":1272,"type":"VEC3","min":[-1,-1,-1],"max":[1,1,1]},{"bufferView":3,"byteOffset":0,"componentType":5125,"count":616,"type":"SCALAR","min":[0],"max":[655]},{"bufferView":4,"byteOffset":0,"componentType":5126,"count":1272,"type":"VEC4","min":[0,0,0,0],"max":[0,0,0,0]},{"bufferView":5,"byteOffset":0,"componentType":5125,"count":34560,"type":"SCALAR","min":[0],"max":[23039]},{"bufferView":6,"byteOffset":0,"componentType":5126,"count":23040,"type":"VEC3","min":[-50,-50,-50],"max":[50,50,50]},{"bufferView":7,"byteOffset":0,"componentType":5126,"count":23040,"type":"VEC3","min":[-1,-1,-1],"max":[1,1,1]}],"extensions":{"KHR_lights_punctual":{"lights":[]}},"extensionsUsed":["KHR_lights_punctual"]}